<svg width="82" height="82" viewBox="0 0 82 82" fill="none" xmlns="http://www.w3.org/2000/svg">
<rect width="82" height="82" rx="41" fill="#FFEB34"/>
<path d="M43.7449 67.4429C39.3151 67.4429 35.3543 66.4648 31.8626 64.5088C28.3708 62.5527 25.6087 59.773 23.6283 56.1698C21.6479 52.5665 20.6577 48.3455 20.6577 43.4553C20.6577 38.5652 21.6479 34.3442 23.6283 30.7409C25.6087 27.1376 28.3708 24.3579 31.8626 22.4019C35.3543 20.4458 39.3672 19.4678 43.8492 19.4678C48.3311 19.4678 52.2919 20.4458 55.7836 22.4019C59.2233 24.3579 61.9333 27.1376 63.9137 30.7409C65.8941 34.3442 66.8843 38.5652 66.8843 43.4553C66.8843 48.3455 65.8941 52.5665 63.9137 56.1698C61.9333 59.773 59.1712 62.5527 55.7315 64.5088C52.1877 66.4648 48.2269 67.4429 43.7449 67.4429ZM43.7449 58.1258C46.0901 58.1258 48.279 57.6111 50.3115 56.5301C52.2919 55.5006 53.9075 53.8534 55.1061 51.6914C56.3048 49.5294 56.9302 46.7498 56.9302 43.4039C56.9302 40.0065 56.3048 37.2268 55.1061 35.0648C53.9075 32.9029 52.2919 31.3071 50.3115 30.2776C48.3311 29.2481 46.1944 28.6819 43.797 28.6819C41.4518 28.6819 39.263 29.1966 37.2305 30.2776C35.2501 31.3071 33.6345 32.9029 32.4358 35.0648C31.2372 37.2268 30.6118 40.0065 30.6118 43.4039C30.6118 48.4484 31.9147 52.1547 34.4683 54.5225C37.0741 56.9419 40.149 58.1258 43.7449 58.1258Z" fill="#3E3E3E" stroke="#3E3E3E" stroke-width="0.986111" stroke-miterlimit="10"/>
<path d="M38.6363 64.5087C34.2065 64.5087 30.2457 63.5306 26.7539 61.5746C23.2622 59.6185 20.5001 56.8388 18.5197 53.2356C16.5393 49.6323 15.5491 45.4113 15.5491 40.5211C15.5491 35.631 16.5393 31.41 18.5197 27.8067C20.5001 24.2034 23.2622 21.4237 26.7539 19.4677C30.2457 17.5116 34.2586 16.5336 38.7405 16.5336C43.2225 16.5336 47.1832 17.5116 50.675 19.4677C54.1146 21.4237 56.8246 24.2034 58.805 27.8067C60.7854 31.41 61.7756 35.631 61.7756 40.5211C61.7756 45.4113 60.7854 49.6323 58.805 53.2356C56.8246 56.8388 54.0625 59.6185 50.6229 61.5746C47.079 63.4792 43.1182 64.5087 38.6363 64.5087ZM38.6363 55.1402C40.9815 55.1402 43.1703 54.6254 45.2028 53.5444C47.1832 52.5149 48.7988 50.8677 49.9975 48.7057C51.1961 46.5438 51.8215 43.7641 51.8215 40.4182C51.8215 37.0208 51.1961 34.2411 49.9975 32.0792C48.7988 29.9172 47.1832 28.3214 45.2028 27.2919C43.2746 26.3139 41.0857 25.7991 38.7405 25.7991C36.3953 25.7991 34.2065 26.3139 32.1739 27.3949C30.1936 28.4244 28.578 30.0201 27.3793 32.1821C26.1807 34.3441 25.5553 37.1237 25.5553 40.5211C25.5553 45.5657 26.8582 49.2719 29.4118 51.6398C32.0176 53.9562 35.0924 55.1402 38.6363 55.1402Z" fill="#617AFF" stroke="#3E3E3E" stroke-width="0.986111" stroke-miterlimit="10"/>
<path d="M20.5 33.8284L29.516 23.4304L41.2941 22.092L50.8834 30.637L55.678 39.0275L54.1146 50.9183L47.8607 57.3012L36.4474 59.1544L25.451 51.2786L20.5 33.8284Z" fill="#617AFF"/>
<path d="M38.1153 46.4915C42.1803 46.4915 45.4115 43.2485 45.4115 39.2849C45.4115 35.3213 42.1282 32.0784 38.1153 32.0784C34.1024 32.0784 30.8191 35.3213 30.8191 39.2849C30.8191 43.2485 34.0503 46.4915 38.1153 46.4915Z" fill="#3E3E3E" stroke="#3E3E3E" stroke-width="0.774689" stroke-miterlimit="10"/>
<path d="M52.7634 28.4786L59.6427 21.6838C60.9977 20.3455 60.7371 17.9261 59.0694 16.2789C57.4017 14.6317 54.9523 14.3743 53.5973 15.7127L46.718 22.5074C45.363 23.8458 45.6236 26.2652 47.2913 27.9124C48.959 29.5596 51.4084 29.817 52.7634 28.4786Z" fill="white" stroke="#3E3E3E" stroke-width="0.986111" stroke-miterlimit="10"/>
</svg>
